<svg height="512pt" viewBox="0 -4 512 512" width="512pt" xmlns="http://www.w3.org/2000/svg"><path d="m416 184c-2.121094 0-4.160156-.839844-5.65625-2.34375l-46.855469-46.855469c-7.398437-7.375-11.488281-17.214843-11.488281-27.6875 0-10.472656 4.089844-20.3125 11.496094-27.699219 7.335937-7.382812 17.167968-11.46875 27.664062-11.46875 9.167969 0 17.847656 3.117188 24.839844 8.839844 7-5.730468 15.6875-8.839844 24.847656-8.839844 10.496094 0 20.328125 4.085938 27.695313 11.496094 7.386719 7.359375 11.464843 17.191406 11.464843 27.671875s-4.078124 20.3125-11.488281 27.695313l-2.824219 2.777344-44.046874 44.078124c-1.488282 1.496094-3.519532 2.335938-5.648438 2.335938zm-24.839844-100.054688c-6.199218 0-12.007812 2.40625-16.34375 6.773438-4.402344 4.386719-6.816406 10.191406-6.816406 16.394531 0 6.199219 2.414062 12.007813 6.792969 16.367188l41.207031 41.207031 41.265625-41.246094c4.328125-4.320312 6.742187-10.136718 6.742187-16.328125 0-6.191406-2.414062-12.007812-6.785156-16.371093-8.742187-8.78125-24.039062-8.765626-32.832031 0l-2.757813 2.746093c-3.128906 3.113281-8.160156 3.113281-11.28125 0l-2.75-2.734375c-4.394531-4.394531-10.234374-6.808594-16.441406-6.808594zm0 0" fill="#3b566e"/><path d="m504 280c-4.425781 0-8-3.574219-8-8 0-4.414062-3.585938-8-8-8-4.425781 0-8-3.574219-8-8s3.574219-8 8-8c13.230469 0 24 10.769531 24 24 0 4.425781-3.574219 8-8 8zm0 0" fill="#3b566e"/><path d="m488 336c-4.425781 0-8-3.574219-8-8s3.574219-8 8-8c4.414062 0 8-3.585938 8-8 0-4.425781 3.574219-8 8-8s8 3.574219 8 8c0 13.230469-10.769531 24-24 24zm0 0" fill="#3b566e"/><path d="m504 320c-4.425781 0-8-3.574219-8-8v-40c0-4.425781 3.574219-8 8-8s8 3.574219 8 8v40c0 4.425781-3.574219 8-8 8zm0 0" fill="#3b566e"/><path d="m488 264h-16c-4.425781 0-8-3.574219-8-8s3.574219-8 8-8h16c4.425781 0 8 3.574219 8 8s-3.574219 8-8 8zm0 0"/><path d="m488 336h-48c-4.425781 0-8-3.574219-8-8s3.574219-8 8-8h48c4.425781 0 8 3.574219 8 8s-3.574219 8-8 8zm0 0" fill="#3b566e"/><path d="m472 264c-4.425781 0-8-3.574219-8-8v-28c0-4.425781 3.574219-8 8-8s8 3.574219 8 8v28c0 4.425781-3.574219 8-8 8zm0 0" fill="#3b566e"/><path d="m440.007812 264c-.734374 0-1.472656-.105469-2.199218-.304688-4.25-1.214843-6.710938-5.648437-5.503906-9.886718l8-28c1.214843-4.257813 5.6875-6.664063 9.886718-5.503906 4.25 1.214843 6.710938 5.648437 5.503906 9.886718l-8 28c-1.007812 3.519532-4.207031 5.808594-7.6875 5.808594zm0 0" fill="#3b566e"/><path d="m448 236c-.726562 0-1.472656-.105469-2.199219-.3125-4.25-1.214844-6.703125-5.648438-5.488281-9.886719 1.390625-4.863281 5.101562-17.800781 19.6875-17.800781 11.03125 0 20 8.96875 20 20 0 4.425781-3.574219 8-8 8s-8-3.574219-8-8c0-2.199219-1.800781-4-4-4-1.472656 0-2.527344 0-4.3125 6.199219-1.007812 3.519531-4.199219 5.800781-7.6875 5.800781zm0 0" fill="#3b566e"/><path d="m440 336c-2.046875 0-4.097656-.785156-5.65625-2.34375l-8-8c-3.128906-3.128906-3.128906-8.183594 0-11.3125s8.183594-3.128906 11.3125 0l8 8c3.128906 3.128906 3.128906 8.183594 0 11.3125-1.558594 1.558594-3.609375 2.34375-5.65625 2.34375zm0 0"/><path d="m440 264h-24c-4.425781 0-8-3.574219-8-8s3.574219-8 8-8h24c4.425781 0 8 3.574219 8 8s-3.574219 8-8 8zm0 0" fill="#3b566e"/><path d="m432 328h-16c-4.425781 0-8-3.574219-8-8s3.574219-8 8-8h16c4.425781 0 8 3.574219 8 8s-3.574219 8-8 8zm0 0" fill="#3b566e"/><path d="m416 336h-32c-4.425781 0-8-3.574219-8-8v-80c0-4.425781 3.574219-8 8-8h32c4.425781 0 8 3.574219 8 8v80c0 4.425781-3.574219 8-8 8zm-24-16h16v-64h-16zm0 0" fill="#3b566e"/><path d="m424 488c-30.871094 0-56-25.128906-56-56s25.128906-56 56-56 56 25.128906 56 56-25.128906 56-56 56zm0-96c-22.054688 0-40 17.945312-40 40s17.945312 40 40 40 40-17.945312 40-40-17.945312-40-40-40zm0 0" fill="#3b566e"/><path d="m424 456c-4.425781 0-8-3.574219-8-8v-32c0-4.425781 3.574219-8 8-8s8 3.574219 8 8v32c0 4.425781-3.574219 8-8 8zm0 0" fill="#3b566e"/><path d="m440 440h-32c-4.425781 0-8-3.574219-8-8s3.574219-8 8-8h32c4.425781 0 8 3.574219 8 8s-3.574219 8-8 8zm0 0" fill="#3b566e"/><path d="m216 88c-13.230469 0-24-10.769531-24-24s10.769531-24 24-24 24 10.769531 24 24-10.769531 24-24 24zm0-32c-4.414062 0-8 3.585938-8 8s3.585938 8 8 8 8-3.585938 8-8-3.585938-8-8-8zm0 0" fill="#3b566e"/><path d="m288 48c-13.230469 0-24-10.769531-24-24s10.769531-24 24-24 24 10.769531 24 24-10.769531 24-24 24zm0-32c-4.414062 0-8 3.585938-8 8s3.585938 8 8 8 8-3.585938 8-8-3.585938-8-8-8zm0 0" fill="#3b566e"/><path d="m288 128c-13.230469 0-24-10.769531-24-24s10.769531-24 24-24 24 10.769531 24 24-10.769531 24-24 24zm0-32c-4.414062 0-8 3.585938-8 8s3.585938 8 8 8 8-3.585938 8-8-3.585938-8-8-8zm0 0" fill="#3b566e"/><path d="m274.007812 104.230469c-1.3125 0-2.648437-.320313-3.871093-1.007813l-44.046875-24.46875c-3.867188-2.144531-5.257813-7.019531-3.113282-10.875 2.144532-3.855468 7.023438-5.261718 10.871094-3.109375l44.046875 24.46875c3.867188 2.144531 5.257813 7.019531 3.113281 10.875-1.464843 2.640625-4.183593 4.117188-7 4.117188zm0 0" fill="#3b566e"/><path d="m229.992188 64.230469c-2.816407 0-5.535157-1.488281-7-4.117188-2.152344-3.855469-.761719-8.738281 3.113281-10.875l44.046875-24.46875c3.847656-2.160156 8.726562-.753906 10.871094 3.109375 2.144531 3.863282.761718 8.738282-3.113282 10.875l-44.046875 24.46875c-1.222656.6875-2.558593 1.007813-3.871093 1.007813zm0 0" fill="#3b566e"/><path d="m344 216.015625c-4.425781 0-8-3.574219-8-8 0-17.65625-14.359375-32.015625-32.015625-32.015625-17.648437 0-32.007813 14.359375-32.007813 32.015625 0 4.425781-3.578124 8-8 8-4.425781 0-8-3.574219-8-8 0-26.480469 21.535157-48.015625 48.007813-48.015625 26.480469 0 48.015625 21.535156 48.015625 48.015625 0 4.425781-3.574219 8-8 8zm0 0" fill="#3b566e"/><path d="m304 416c-26.472656 0-48-21.527344-48-48 0-4.425781 3.574219-8 8-8s8 3.574219 8 8c0 17.648438 14.351562 32 32 32s32-14.351562 32-32c0-4.425781 3.574219-8 8-8s8 3.574219 8 8c0 26.472656-21.527344 48-48 48zm0 0" fill="#3b566e"/><path d="m264 376c-4.425781 0-8-3.574219-8-8v-160c0-4.425781 3.574219-8 8-8s8 3.574219 8 8v160c0 4.425781-3.574219 8-8 8zm0 0" fill="#3b566e"/><path d="m223.992188 216.015625c-4.425782 0-8-3.574219-8-8 0-26.480469 21.535156-48.015625 48.007812-48.015625 4.425781 0 8 3.574219 8 8s-3.574219 8-8 8c-17.648438 0-32.007812 14.359375-32.007812 32.015625 0 4.425781-3.578126 8-8 8zm0 0" fill="#3b566e"/><path d="m264.015625 416c-26.472656 0-48-21.527344-48-48 0-4.425781 3.578125-8 8-8 4.425781 0 8 3.574219 8 8 0 17.648438 14.351563 32 32 32 4.425781 0 8 3.574219 8 8s-3.574219 8-8 8zm0 0" fill="#3b566e"/><path d="m224.015625 376c-4.421875 0-8-3.574219-8-8v-160c0-4.425781 3.578125-8 8-8 4.425781 0 8 3.574219 8 8v160c0 4.425781-3.574219 8-8 8zm0 0" fill="#3b566e"/><path d="m344 376c-4.425781 0-8-3.574219-8-8v-160c0-4.425781 3.574219-8 8-8s8 3.574219 8 8v160c0 4.425781-3.574219 8-8 8zm0 0" fill="#3b566e"/><path d="m296 416h-32c-4.425781 0-8-3.574219-8-8s3.574219-8 8-8h32c4.425781 0 8 3.574219 8 8s-3.574219 8-8 8zm0 0" fill="#3b566e"/><path d="m296 176h-32c-4.425781 0-8-3.574219-8-8s3.574219-8 8-8h32c4.425781 0 8 3.574219 8 8s-3.574219 8-8 8zm0 0" fill="#3b566e"/><path d="m223.992188 216h-135.992188c-4.425781 0-8-3.574219-8-8s3.574219-8 8-8h135.992188c4.421874 0 8 3.574219 8 8s-3.578126 8-8 8zm0 0" fill="#3b566e"/><path d="m224.015625 376.007812h-136.015625c-4.425781 0-8-3.574218-8-8 0-4.421874 3.574219-8 8-8h136.015625c4.425781 0 8 3.578126 8 8 0 4.425782-3.574219 8-8 8zm0 0" fill="#3b566e"/><path d="m88 376.007812c-48.519531 0-88-39.480468-88-88.007812 0-48.519531 39.480469-88 88-88 4.425781 0 8 3.574219 8 8s-3.574219 8-8 8c-39.703125 0-72 32.296875-72 72s32.296875 72.007812 72 72.007812c4.425781 0 8 3.578126 8 8 0 4.425782-3.574219 8-8 8zm0 0" fill="#3b566e"/><path d="m103.992188 504c-3.976563 0-7.425782-2.960938-7.929688-7.007812l-16-127.992188c-.542969-4.382812 2.5625-8.382812 6.945312-8.929688 4.40625-.496093 8.382813 2.5625 8.929688 6.945313l16 127.992187c.542969 4.382813-2.5625 8.382813-6.945312 8.929688-.335938.039062-.671876.0625-1 .0625zm0 0" fill="#3b566e"/><path d="m167.992188 504c-3.976563 0-7.425782-2.960938-7.929688-7.007812l-16-127.992188c-.542969-4.382812 2.5625-8.382812 6.945312-8.929688 4.40625-.496093 8.382813 2.5625 8.929688 6.945313l16 127.992187c.542969 4.382813-2.5625 8.382813-6.945312 8.929688-.335938.039062-.671876.0625-1 .0625zm0 0" fill="#3b566e"/><path d="m176 504h-72c-4.425781 0-8-3.574219-8-8s3.574219-8 8-8h72c4.425781 0 8 3.574219 8 8s-3.574219 8-8 8zm0 0" fill="#3b566e"/><path d="m192 400c-3.351562 0-6.472656-2.121094-7.585938-5.472656l-8-23.992188c-1.398437-4.191406.867188-8.726562 5.058594-10.121094 4.230469-1.40625 8.71875.867188 10.121094 5.058594l8 23.992188c1.398438 4.191406-.867188 8.726562-5.058594 10.121094-.847656.277343-1.703125.414062-2.535156.414062zm0 0"/><path d="m192 400h-37c-4.425781 0-8-3.574219-8-8s3.574219-8 8-8h37c4.425781 0 8 3.574219 8 8s-3.574219 8-8 8zm0 0" fill="#3b566e"/><path d="m296 312c-4.425781 0-8-3.574219-8-8s3.574219-8 8-8c4.414062 0 8-3.585938 8-8s-3.585938-8-8-8c-4.425781 0-8-3.574219-8-8s3.574219-8 8-8c13.230469 0 24 10.769531 24 24s-10.769531 24-24 24zm0 0" fill="#3b566e"/><path d="m296 312h-32c-4.425781 0-8-3.574219-8-8s3.574219-8 8-8h32c4.425781 0 8 3.574219 8 8s-3.574219 8-8 8zm0 0" fill="#3b566e"/><path d="m296 280h-32c-4.425781 0-8-3.574219-8-8s3.574219-8 8-8h32c4.425781 0 8 3.574219 8 8s-3.574219 8-8 8zm0 0" fill="#3b566e"/><path d="m48 296h-40c-4.425781 0-8-3.574219-8-8s3.574219-8 8-8h40c4.425781 0 8 3.574219 8 8s-3.574219 8-8 8zm0 0" fill="#3b566e"/><path d="m48 256h-29.289062c-4.421876 0-8-3.574219-8-8s3.578124-8 8-8h29.289062c4.425781 0 8 3.574219 8 8s-3.574219 8-8 8zm0 0" fill="#3b566e"/><path d="m48 336h-29.289062c-4.421876 0-8-3.574219-8-8s3.578124-8 8-8h29.289062c4.425781 0 8 3.574219 8 8s-3.574219 8-8 8zm0 0" fill="#3b566e"/></svg>